<svg width="34" height="34" viewBox="0 0 34 34" fill="none" xmlns="http://www.w3.org/2000/svg">
  <path d="M17 .333A16.667 16.667 0 0 0 4.75 28.267a16.666 16.666 0 0 0 24.5 0A16.666 16.666 0 0 0 17 .333Zm0 30a13.334 13.334 0 0 1-9.25-3.75 10 10 0 0 1 18.5 0 13.334 13.334 0 0 1-9.25 3.75Zm-3.333-16.666a3.333 3.333 0 1 1 6.666 0 3.333 3.333 0 0 1-6.666 0Zm14.85 10A13.333 13.333 0 0 0 22 18.033a6.667 6.667 0 1 0-10 0 13.333 13.333 0 0 0-6.516 5.634A13.2 13.2 0 0 1 3.667 17a13.333 13.333 0 0 1 26.667 0 13.2 13.2 0 0 1-1.817 6.667Z" fill="#000"/>
</svg>
