<svg width="20" height="20" viewBox="0 0 20 20" fill="none" xmlns="http://www.w3.org/2000/svg">
  <circle cx="10" cy="10" r="10" fill="#C0C0C0"/>
  <path d="M13.356 14.233a.225.225 0 0 1-.318 0l-3.008-3.008-3.009 3.008a.225.225 0 0 1-.318 0l-.877-.877a.225.225 0 0 1 0-.318l3.009-3.008-3.009-3.01a.225.225 0 0 1 0-.318l.877-.877a.225.225 0 0 1 .318 0l3.009 3.009 3.008-3.009a.225.225 0 0 1 .318 0l.877.877a.225.225 0 0 1 0 .318l-3.008 3.009 3.008 3.008a.225.225 0 0 1 0 .318l-.877.877Z" fill="#F6F6F9"/>
</svg>