<svg width="18" height="21" viewBox="0 0 18 21" fill="none" xmlns="http://www.w3.org/2000/svg">
  <path d="m10.681 10.5 6.902-7.612a1.253 1.253 0 0 0 0-1.692c-.438-.483-1.095-.483-1.534 0L9.147 8.809 2.245 1.196C1.807.713 1.149.713.71 1.196a1.253 1.253 0 0 0 0 1.692L7.613 10.5.711 18.113c-.22.241-.329.483-.329.846 0 .724.439 1.208 1.096 1.208.329 0 .548-.121.767-.363l6.902-7.612 6.902 7.612c.22.242.439.363.767.363.329 0 .548-.121.767-.363a1.253 1.253 0 0 0 0-1.691L10.681 10.5Z" fill="#000"/>
</svg>