<svg width="40" height="40" viewBox="0 0 40 40" fill="none" xmlns="http://www.w3.org/2000/svg">
  <rect width="40" height="40" rx="4" fill="#C4C4C4"/>
  <path d="M30.5 5h-21A4.5 4.5 0 0 0 5 9.5v1.755a4.5 4.5 0 0 0 .375 1.8v.09c.212.482.512.919.885 1.29l9.24 9.18V33.5a1.5 1.5 0 0 0 .705 1.275 1.5 1.5 0 0 0 1.47.06l6-3A1.5 1.5 0 0 0 24.5 30.5v-6.885l9.18-9.18a4.22 4.22 0 0 0 .885-1.29v-.09a4.5 4.5 0 0 0 .435-1.8V9.5A4.5 4.5 0 0 0 30.5 5Zm-8.565 16.935A1.502 1.502 0 0 0 21.5 23v6.57l-3 1.5V23a1.502 1.502 0 0 0-.435-1.065L10.115 14h19.77l-7.95 7.935ZM32 11H8V9.5A1.5 1.5 0 0 1 9.5 8h21A1.5 1.5 0 0 1 32 9.5V11Z" fill="#3F3F3F"/>
</svg>
