<svg width="30" height="34" viewBox="0 0 30 34" fill="none" xmlns="http://www.w3.org/2000/svg">
  <path d="m28.334 10.333-10-8.766a5 5 0 0 0-6.667 0l-10 8.766A5 5 0 0 0 0 14.1v14.567a5 5 0 0 0 5 5h20a5 5 0 0 0 5-5V14.083a5 5 0 0 0-1.666-3.75Zm-10 20h-6.667V22a1.667 1.667 0 0 1 1.667-1.667h3.333A1.666 1.666 0 0 1 18.333 22v8.333Zm8.333-1.666A1.667 1.667 0 0 1 25 30.333h-3.333V22a5 5 0 0 0-5-5h-3.334a5 5 0 0 0-5 5v8.333H5a1.667 1.667 0 0 1-1.667-1.666V14.083a1.667 1.667 0 0 1 .567-1.25l10-8.75a1.666 1.666 0 0 1 2.2 0l10 8.75a1.668 1.668 0 0 1 .567 1.25v14.584Z" fill="#000"/>
</svg>
