<svg width="20" height="20" viewBox="0 0 20 20" fill="none" xmlns="http://www.w3.org/2000/svg">
  <path fill-rule="evenodd" clip-rule="evenodd" d="m19.844 16.803-4.417-4.473a8.16 8.16 0 0 0 1.094-4.056C16.52 3.713 12.812 0 8.26 0 3.707 0 0 3.713 0 8.274c0 4.561 3.708 8.274 8.26 8.274a8.123 8.123 0 0 0 4.172-1.167l4.396 4.458a.528.528 0 0 0 .76 0l2.256-2.281a.534.534 0 0 0 0-.755ZM8.259 3.223a5.05 5.05 0 0 1 5.042 5.05 5.05 5.05 0 0 1-5.042 5.051 5.05 5.05 0 0 1-5.041-5.05 5.05 5.05 0 0 1 5.041-5.051Z" fill="#C0C0C0"/>
</svg>